<?xml version="1.0" encoding="UTF-8"?>
<svg version="1.1" xmlns="http://www.w3.org/2000/svg" width="480" height="565">
<path d="M0 0 C2.04437303 -0.00135132 4.08874574 -0.00329572 6.13311768 -0.00579834 C10.39932339 -0.00873031 14.66544479 -0.00451623 18.93164062 0.00488281 C24.34846125 0.01624691 29.76508294 0.00972472 35.18189621 -0.00226212 C39.39973393 -0.00955803 43.61752605 -0.0071572 47.8353653 -0.00200653 C49.83007075 -0.00068978 51.82478059 -0.00224686 53.8194809 -0.00696564 C96.9840813 -0.08666881 136.11185143 11.5801944 167.703125 42.265625 C168.42242187 42.92304687 169.14171875 43.58046875 169.8828125 44.2578125 C186.60833486 60.03099195 200.57744256 82.52815056 205.546875 105.09765625 C206.34675522 108.40021246 206.34675522 108.40021246 208.9296875 109.4140625 C209.84492188 109.69507813 210.76015625 109.97609375 211.703125 110.265625 C229.67288087 122.50325621 241.73365266 139.25571494 246.30615234 160.82470703 C249.77015392 182.124269 244.60437929 202.72202438 232.5703125 220.3984375 C228.79437586 225.25707998 225.12371612 228.67438888 219.98657227 232.04296875 C216.01624614 235.27701247 214.07599825 237.55576633 213.49424744 242.74645901 C213.31342756 246.46962231 213.37988959 250.16602786 213.48046875 253.890625 C213.48437002 255.56155487 213.48310468 257.23250356 213.4770813 258.90342712 C213.47393269 262.4845043 213.50400894 266.06314054 213.56057739 269.64376831 C213.64940202 275.3325389 213.66219979 281.01985184 213.65991211 286.70922852 C213.65989489 288.65608216 213.66003317 290.60293581 213.6603241 292.54978943 C213.66046194 293.52154051 213.66059978 294.49329159 213.66074181 295.49448967 C213.6640843 298.47647999 213.674788 301.45835961 213.68769836 304.44032288 C213.76542306 323.84943813 213.36033112 343.23596926 212.83453369 362.63694 C212.7656862 365.20084579 212.69931031 367.76480358 212.63378906 370.32879639 C211.96027333 396.65165766 211.16478877 422.97286864 209.703125 449.265625 C209.66427185 449.97621063 209.6254187 450.68679626 209.58538818 451.41891479 C209.47049594 453.4736957 209.34819557 455.52787596 209.22265625 457.58203125 C209.15280518 458.73646729 209.0829541 459.89090332 209.01098633 461.08032227 C207.58428722 475.8417364 200.60446334 487.3344134 189.66015625 497.0859375 C179.25959146 505.34826242 167.78542484 507.57149866 154.78125 507.6015625 C153.75940613 507.6082193 152.73756226 507.6148761 151.68475342 507.62173462 C149.53334335 507.63180749 147.38190237 507.63655331 145.23046875 507.63623047 C141.97602638 507.64059429 138.72295235 507.67694696 135.46875 507.71484375 C116.75913293 507.81590023 102.13394216 504.95960156 88.06640625 491.7890625 C79.45749943 482.59674216 74.56061311 471.25829809 74.58959961 458.64916992 C74.58967514 457.54840622 74.58975067 456.44764252 74.58982849 455.31352234 C74.59498978 454.1362709 74.60015106 452.95901947 74.60546875 451.74609375 C74.60759117 449.92553215 74.60759117 449.92553215 74.60975647 448.06819153 C74.61534835 444.19647748 74.62789942 440.32482153 74.640625 436.453125 C74.64564105 433.82617271 74.65020377 431.19921951 74.65429688 428.57226562 C74.66446368 422.13667843 74.68404087 415.70121665 74.703125 409.265625 C64.473125 409.265625 54.243125 409.265625 43.703125 409.265625 C43.73792969 413.07351563 43.77273438 416.88140625 43.80859375 420.8046875 C43.83205886 424.53482312 43.85023582 428.26495019 43.86791992 431.99511719 C43.88291077 434.56709536 43.90331028 437.1390484 43.92944336 439.7109375 C44.16838999 463.84923217 42.7735107 483.0315571 26.703125 502.265625 C26.14882812 502.93464844 25.59453125 503.60367187 25.0234375 504.29296875 C15.49855307 514.74190914 -0.71905251 522.6044993 -14.87417603 523.41279602 C-16.24671036 523.42756233 -16.24671036 523.42756233 -17.64697266 523.44262695 C-18.692211 523.45546219 -19.73744934 523.46829742 -20.81436157 523.48152161 C-22.49566666 523.49260201 -22.49566666 523.49260201 -24.2109375 523.50390625 C-25.37636078 523.511978 -26.54178406 523.52004974 -27.74252319 523.52836609 C-30.20870486 523.54218399 -32.67490547 523.55291638 -35.14111328 523.56079102 C-37.65093631 523.57229802 -40.16073512 523.59272925 -42.67041016 523.62231445 C-46.30908739 523.66519287 -49.94703829 523.68118981 -53.5859375 523.69140625 C-54.69466217 523.70891434 -55.80338684 523.72642242 -56.94570923 523.74446106 C-70.48141323 523.70724867 -82.25674345 518.29824137 -92.046875 509.015625 C-104.36008897 496.07152198 -106.36067596 481.78080303 -107.359375 464.640625 C-107.40423035 463.88494232 -107.44908569 463.12925964 -107.49530029 462.35067749 C-108.52172475 444.6563351 -108.50140674 426.98279397 -108.296875 409.265625 C-109.44575195 409.28657227 -110.59462891 409.30751953 -111.77832031 409.32910156 C-116.09459669 409.40222399 -120.41081987 409.44768386 -124.72753906 409.48535156 C-126.58570605 409.50530417 -128.44381159 409.53247634 -130.30175781 409.56738281 C-147.77998167 409.88722114 -162.00475939 407.45462115 -175.109375 394.890625 C-185.84760791 383.54742122 -189.18788376 370.65222793 -189.83203125 355.359375 C-189.87518967 354.38383667 -189.91834808 353.40829834 -189.96281433 352.40319824 C-190.10142077 349.19090356 -190.23188286 345.97837946 -190.359375 342.765625 C-190.40356567 341.65429199 -190.44775635 340.54295898 -190.49328613 339.39794922 C-192.05066608 299.28717738 -191.38062975 259.34674088 -189.296875 219.265625 C-189.24240204 218.20976196 -189.24240204 218.20976196 -189.18682861 217.13256836 C-188.76687635 209.15219888 -188.11473244 201.21444045 -187.296875 193.265625 C-187.21888672 192.4883606 -187.14089844 191.71109619 -187.06054688 190.91027832 C-186.5017193 185.34905109 -185.91383137 179.79172682 -185.29751587 174.23657227 C-185.09186468 172.36753344 -184.89148041 170.4979061 -184.6968689 168.62768555 C-182.75856673 150.20225637 -178.2104559 136.40366333 -163.671875 124.05078125 C-150.38599682 114.06452084 -135.4359024 113.84175193 -119.546875 114.078125 C-117.77084474 114.09320634 -115.99480203 114.10688861 -114.21875 114.11914062 C-109.91114511 114.15185642 -105.6041512 114.20344564 -101.296875 114.265625 C-101.18412231 112.86207764 -101.18412231 112.86207764 -101.0690918 111.43017578 C-96.27286513 52.49060425 -96.27286513 52.49060425 -78.296875 29.265625 C-77.83796875 28.63914062 -77.3790625 28.01265625 -76.90625 27.3671875 C-64.75291689 11.77285044 -44.57699142 3.25077217 -25.5135498 0.66711426 C-17.05154699 -0.2465413 -8.49895836 -0.02001096 0 0 Z " fill="#000000" transform="translate(212.296875,20.734375)"/>
<path d="M0 0 C1.34100919 -0.00570777 2.68201353 -0.0126736 4.02301025 -0.02079773 C7.65564657 -0.03870833 11.28804101 -0.03756372 14.92070818 -0.03185534 C17.96193745 -0.02875768 21.00312065 -0.03486299 24.04434335 -0.04089409 C31.2278436 -0.05493342 38.41122494 -0.05338552 45.59472656 -0.04199219 C52.98037049 -0.03053628 60.36565021 -0.04454513 67.75124609 -0.07138866 C74.11076352 -0.09362882 80.47016735 -0.10016369 86.82972085 -0.09431225 C90.61953659 -0.09095824 94.40911945 -0.09325192 98.19890213 -0.11056328 C101.76957834 -0.12616153 105.33972138 -0.12193654 108.9103775 -0.10325813 C110.82601277 -0.09788145 112.7416727 -0.11199164 114.65725708 -0.12695312 C127.42187984 -0.01956956 139.50611582 3.68764599 149.06396484 12.43920898 C158.49619819 22.4356133 162.03625809 33.09066867 162.10693359 46.57202148 C161.82887825 49.53658218 160.99471853 51.67945106 159.84130859 54.40405273 C158.19545776 54.5134745 158.19545776 54.5134745 156.51635742 54.62510681 C146.15851896 55.31403539 135.80084606 56.00540691 125.44332886 56.69914913 C120.11887537 57.05570054 114.79436795 57.41140144 109.46972656 57.76513672 C104.32785597 58.10676166 99.18614119 58.45064935 94.04452515 58.79608345 C92.08626651 58.92725198 90.12795377 59.05761539 88.16958618 59.18714714 C85.41938625 59.36919315 82.66939542 59.55414259 79.91943359 59.73974609 C79.11598007 59.79225525 78.31252655 59.8447644 77.48472595 59.89886475 C72.57317123 60.23407413 67.72367074 60.77435812 62.84130859 61.40405273 C61.05078031 61.47572936 59.25823595 61.51290853 57.46630859 61.50170898 C56.08378906 61.496875 56.08378906 61.496875 54.67333984 61.49194336 C53.27148438 61.479375 53.27148438 61.479375 51.84130859 61.46655273 C50.87580078 61.46204102 49.91029297 61.4575293 48.91552734 61.45288086 C46.5573877 61.4412069 44.19938258 61.42483294 41.84130859 61.40405273 C43.80574391 67.17794012 45.81984405 72.93068691 47.87988281 78.67114258 C48.76304435 81.18158195 49.58997677 83.70378485 50.40771484 86.23608398 C54.12139122 97.107049 58.46868219 101.02845803 68.84130859 106.40405273 C76.56180099 111.87771452 82.1262789 119.28181939 86.84130859 127.40405273 C87.28627686 128.08749756 87.73124512 128.77094238 88.18969727 129.47509766 C93.19867562 138.37885424 92.70144494 148.07531892 92.65795898 158.00830078 C92.65383872 161.06917449 92.71892311 164.12337698 92.78857422 167.18334961 C92.96318885 186.09370237 86.94210743 198.80749006 73.82958984 212.50561523 C64.81993193 221.13223779 53.23022103 226.26683632 42.14208984 231.68139648 C39.04787495 233.2962471 36.22751124 235.07252005 33.34130859 237.02905273 C16.12122044 248.28153325 -6.26940227 249.68368355 -26.12353516 246.16967773 C-32.36732331 244.59466811 -38.28728306 242.06863728 -43.85400391 238.84155273 C-48.35975848 236.88160276 -52.74292986 236.41088564 -57.59619141 235.84155273 C-58.57249512 235.71643311 -59.54879883 235.59131348 -60.5546875 235.46240234 C-64.8708203 234.91161067 -69.19024667 234.39742197 -73.51416016 233.91186523 C-93.86837352 231.50732604 -111.28625045 222.78838585 -124.90869141 207.27905273 C-138.25304243 190.18010832 -141.14751808 169.99151995 -138.76025391 148.88061523 C-136.7481813 139.34286846 -131.86244811 128.49737027 -125.40087891 121.12280273 C-122.82731066 118.58958265 -122.82731066 118.58958265 -123.15869141 115.27905273 C-123.62512669 113.16877271 -124.24052918 111.1538751 -124.91259766 109.09936523 C-130.22234847 91.40019585 -128.41106016 71.8188175 -120.05224609 55.4831543 C-110.72458349 38.22073442 -95.28730974 26.35424267 -76.68994141 20.53295898 C-60.12777121 16.11409267 -42.27981691 14.06314537 -25.15869141 14.40405273 C-25.06587891 13.35217773 -25.06587891 13.35217773 -24.97119141 12.27905273 C-23.61515083 7.4807553 -20.88008711 4.58475791 -16.87832642 1.83995056 C-11.29397435 -0.31578756 -5.93651744 -0.02137967 0 0 Z " fill="#FEFDFD" transform="translate(264.15869140625,151.595947265625)"/>
<path d="M0 0 C1.30843872 -0.02755371 1.30843872 -0.02755371 2.64331055 -0.05566406 C12.01980885 0.03529043 20.1755604 4.06876015 26.9375 10.5 C32.43845612 17.10267327 35.54940269 23.89296148 38.1875 32 C42.48688626 44.57958007 47.54399912 56.75536384 52.84350586 68.94238281 C53.59501148 70.69930601 54.29598315 72.47844103 54.95336914 74.27270508 C55.7193299 76.67131731 55.7193299 76.67131731 57.96875 77.43359375 C58.7834375 77.59988281 59.598125 77.76617187 60.4375 77.9375 C69.2053557 80.22751715 76.01882645 84.38061526 81.4909668 91.67285156 C84.38172432 97.32263589 83.89862548 103.35359475 83.75 109.5625 C83.76638931 110.89912141 83.78525451 112.23571483 83.80664062 113.57226562 C83.73915308 120.66556153 83.35625002 125.59547758 78.50219727 130.97607422 C77.98584717 131.47896973 77.46949707 131.98186523 76.9375 132.5 C76.18388184 133.31380127 76.18388184 133.31380127 75.41503906 134.14404297 C71.24816839 138.51399217 65.74472696 140.43057947 60.27172852 142.67504883 C55.31866672 144.75434383 50.94345695 147.24105933 46.5 150.25 C41.49830436 153.62105755 36.85592512 156.17238682 30.9375 157.5 C30.009375 157.726875 29.08125 157.95375 28.125 158.1875 C18.79279138 159.10242241 10.36421911 159.11433814 1.9375 154.5 C1.5156543 154.02876709 1.09380859 153.55753418 0.65917969 153.07202148 C-5.3319909 146.51484189 -13.90429466 147.22683183 -22.1875 146.8125 C-25.25363803 146.63575601 -28.31844617 146.44342496 -31.3828125 146.23828125 C-32.12568512 146.18856674 -32.86855774 146.13885223 -33.63394165 146.08763123 C-46.43065495 145.12570701 -57.84560918 142.28492788 -66.9375 132.75 C-73.06699803 125.07001429 -74.76249685 117.59073637 -74.4453125 107.83203125 C-73.89962439 103.08231735 -72.5713127 99.54067342 -70.0625 95.5 C-69.63839844 94.80261719 -69.21429688 94.10523438 -68.77734375 93.38671875 C-64.09462855 86.46047426 -57.27705718 81.41036214 -49.0625 79.5 C-47.7425 79.5 -46.4225 79.5 -45.0625 79.5 C-44.97162109 78.37851562 -44.97162109 78.37851562 -44.87890625 77.234375 C-44.75322266 75.75710938 -44.75322266 75.75710938 -44.625 74.25 C-44.54378906 73.27546875 -44.46257812 72.3009375 -44.37890625 71.296875 C-44.11175416 68.93538247 -43.70878032 66.78098935 -43.0625 64.5 C-44.0525 64.2215625 -44.0525 64.2215625 -45.0625 63.9375 C-53.35281482 59.96505748 -57.97023232 53.7306692 -61.3125 45.375 C-63.18105438 35.72080238 -62.84745344 27.91378463 -57.9609375 19.23046875 C-51.60646219 10.09100734 -43.06555558 5.31077121 -32.26953125 3.234375 C-30.14100747 2.88740352 -28.0092197 2.56001443 -25.875 2.25 C-24.74457275 2.08306641 -23.61414551 1.91613281 -22.44946289 1.74414062 C-14.96708764 0.7177948 -7.55246337 0.08615722 0 0 Z " fill="#FD0202" transform="translate(236.0625,203.5)"/>
<path d="M0 0 C2.22802274 -0.00015528 4.45604574 -0.00164908 6.68406677 -0.00440979 C11.34491988 -0.00579014 16.00546396 0.0066965 20.66625977 0.02954102 C26.59107211 0.05780796 32.51536712 0.05521473 38.44021702 0.0424509 C43.04154237 0.03543488 47.64275188 0.04335188 52.24406242 0.05570793 C54.42576589 0.06017337 56.60748203 0.06060302 58.78918648 0.05664253 C78.06865369 0.03803548 95.49060054 1.6490148 113.24609375 9.49609375 C113.91914551 9.7914502 114.59219727 10.08680664 115.28564453 10.39111328 C138.30421221 20.69622294 160.26408795 39.90226185 170.24609375 63.49609375 C170.24609375 64.15609375 170.24609375 64.81609375 170.24609375 65.49609375 C169.56655514 65.49756031 168.88701653 65.49902687 168.18688583 65.50053787 C151.60897134 65.5376809 135.03129294 65.59679434 118.45354843 65.67999649 C110.43647705 65.71971032 102.41950273 65.75214151 94.40234375 65.76708984 C87.40997473 65.78014626 80.41781998 65.80721188 73.42557168 65.85070682 C69.72735425 65.8732326 66.02940021 65.88900982 62.33110809 65.8879776 C58.19016569 65.88708548 54.0499932 65.91748699 49.90917969 65.95019531 C48.69932404 65.94516495 47.48946838 65.94013458 46.24295044 65.93495178 C32.75051796 66.09904171 21.06595182 70.44873466 10.9921875 79.52734375 C2.81279687 88.09475101 -2.17471954 98.94837657 -3.296875 110.70703125 C-3.42678833 112.0535376 -3.42678833 112.0535376 -3.55932617 113.42724609 C-3.6235376 114.10996582 -3.68774902 114.79268555 -3.75390625 115.49609375 C-4.3272168 115.62137451 -4.90052734 115.74665527 -5.49121094 115.87573242 C-29.44498698 121.17237063 -48.96483503 128.7584035 -62.61010742 150.13989258 C-65.6191826 155.03086921 -67.9537977 160.03282725 -69.75390625 165.49609375 C-70.08390625 165.49609375 -70.41390625 165.49609375 -70.75390625 165.49609375 C-70.25153388 145.5862237 -69.11933931 125.79654233 -67.54229736 105.94708252 C-67.32420622 103.17609483 -67.11414283 100.4045211 -66.90387344 97.63293076 C-65.86696138 84.00059945 -64.72393286 70.38109321 -63.27734375 56.78515625 C-63.1157225 55.20400528 -63.1157225 55.20400528 -62.95083618 53.59091187 C-61.09308922 36.88619662 -57.40673494 23.18620722 -44.75390625 11.49609375 C-41.24816555 8.78381211 -37.72448183 6.46667571 -33.75390625 4.49609375 C-33.12185776 4.16249344 -32.48980927 3.82889313 -31.83860779 3.48518372 C-21.76164026 -1.02416593 -10.80156904 -0.06153966 0 0 Z " fill="#ED7B0D" transform="translate(209.75390625,53.50390625)"/>
<path d="M0 0 C0.27841788 33.65001353 -0.10011018 67.2610071 -0.86972809 100.9019165 C-0.93737427 103.86948424 -1.00356255 106.83708178 -1.06951904 109.8046875 C-1.17539002 114.5389017 -1.28604168 119.27298134 -1.40063286 124.00699234 C-1.44282485 125.76317916 -1.48395057 127.51939197 -1.52391243 129.27563095 C-1.70976676 137.35817257 -1.94020887 145.39371294 -2.76713562 153.44158936 C-3.2129399 158.33950637 -3.31441243 163.2537148 -3.46484375 168.16796875 C-3.54329956 170.46550575 -3.62208538 172.7630315 -3.70117188 175.06054688 C-3.82099802 178.63490923 -3.93817925 182.20929952 -4.04956055 185.78393555 C-4.15948346 189.26641745 -4.28015015 192.7483987 -4.40234375 196.23046875 C-4.44777565 197.82292671 -4.44777565 197.82292671 -4.49412537 199.44755554 C-4.81277435 208.18210876 -5.25742255 215.69715586 -12 222 C-17.27269992 224.73890134 -22.29266156 225.44051596 -28.15625 225.36328125 C-28.9028186 225.36377975 -29.64938721 225.36427826 -30.4185791 225.36479187 C-31.98497197 225.3624686 -33.55136982 225.35284447 -35.11767578 225.33618164 C-37.49416032 225.31255805 -39.86952116 225.31563812 -42.24609375 225.32226562 C-43.77865242 225.31668806 -45.31120643 225.30957768 -46.84375 225.30078125 C-47.54294556 225.30169266 -48.24214111 225.30260406 -48.96252441 225.30354309 C-56.39648356 225.19845554 -63.15804433 223.91255363 -69 219 C-73.65745074 212.75988439 -73.53053455 207.3343161 -73.390625 199.72265625 C-73.38496521 198.5561705 -73.37930542 197.38968475 -73.37347412 196.18785095 C-73.35116584 192.47897513 -73.30097707 188.77108159 -73.25 185.0625 C-73.22992795 182.54102962 -73.21167842 180.01954403 -73.1953125 177.49804688 C-73.1513191 171.3316987 -73.08446137 165.16591955 -73 159 C-71.01025391 158.55647786 -69.02050781 158.11295573 -67.03076172 157.66943359 C-63.18141051 156.40050825 -60.93788019 153.54552088 -58.890625 150.171875 C-57.15686889 145.94394343 -57.48756042 141.47573808 -58 137 C-60.0567291 132.39292682 -62.21484566 130.49591739 -66.86306763 128.6133728 C-71.08116177 127.40263527 -75.38639091 127.51699909 -79.74609375 127.48828125 C-81.2627639 127.46135445 -81.2627639 127.46135445 -82.81007385 127.43388367 C-86.0191743 127.37997958 -89.22812769 127.34594851 -92.4375 127.3125 C-94.62176516 127.2793094 -96.80601098 127.24481814 -98.99023438 127.20898438 C-104.326691 127.12426476 -109.66316713 127.05583113 -115 127 C-112.05316616 125.0354441 -109.64421341 124.13704648 -106.3125 123 C-100.0501258 120.6464026 -94.75564941 117.51425411 -89.16650391 113.86962891 C-84.48033375 110.84228005 -79.72030215 108.27602482 -74.6875 105.875 C-58.27037671 97.9292472 -48.23383184 87.00378582 -40 71 C-39.64550781 70.31357422 -39.29101562 69.62714844 -38.92578125 68.91992188 C-37.57141484 64.64823878 -37.59449302 60.50559676 -37.5234375 56.046875 C-37.50729401 55.07325012 -37.49115051 54.09962524 -37.47451782 53.09649658 C-37.44688668 51.03217623 -37.42541973 48.96776548 -37.40966797 46.90332031 C-37.38678913 44.82231269 -37.34614228 42.74141485 -37.28662109 40.66113281 C-36.87167838 26.13581976 -38.47568701 15.55682185 -46 3 C-40.89581531 2.56798077 -35.79124765 2.14092032 -30.6862793 1.71826172 C-28.95309513 1.57408505 -27.22001909 1.42860196 -25.48706055 1.28173828 C-22.98253891 1.06972292 -20.47765382 0.86255695 -17.97265625 0.65625 C-17.20977798 0.59062866 -16.44689972 0.52500732 -15.66090393 0.45739746 C-10.42463648 0.03244527 -5.25368959 -0.05470219 0 0 Z " fill="#B23D15" transform="translate(393,270)"/>
<path d="M0 0 C2.33429046 2.30701309 4.46527835 4.5686483 6.4375 7.1875 C21.1173967 24.37551975 43.89731118 28.89621002 65.19726562 30.81640625 C74.13432914 31.69945512 81.54133204 33.66719777 89.625 37.5625 C96.69531423 40.83252033 103.28397941 42.33512748 111 43 C111 43.33 111 43.66 111 44 C109.845 44.20625 108.69 44.4125 107.5 44.625 C99.96293861 46.54255626 94.95899765 51.5661148 90.32421875 57.58203125 C85.82657515 65.79454271 85.58370359 73.64838325 85.62890625 82.87109375 C85.61597015 84.88460869 85.60301105 86.89812378 85.58873653 88.91162968 C85.55892784 93.83369333 85.56222254 98.755844 85.56420898 103.67797852 C85.56425043 106.45239076 85.55357754 109.22641681 85.53245544 112.00074768 C85.51388513 114.59958911 85.51175005 117.19861761 85.52870178 119.79747009 C85.43760194 130.61321146 82.84371886 140.17307711 75 148 C66.53666061 154.4880796 57.82163998 156.31378022 47.34375 156.30078125 C46.16298889 156.30720894 46.16298889 156.30720894 44.95837402 156.31376648 C43.3080338 156.31946302 41.65766849 156.32004496 40.00732422 156.31567383 C37.50574394 156.31250727 35.00534156 156.33605367 32.50390625 156.36132812 C23.15492514 156.39826588 15.37771339 156.27339076 7.125 151.25 C1.11039576 144.88159551 1.46250243 137.34574702 1.26953125 129.04296875 C1.22929337 127.74279312 1.18905548 126.44261749 1.14759827 125.1030426 C1.03932122 121.54113284 0.95050246 117.97898271 0.86647797 114.41642761 C0.81244333 112.18516008 0.75294786 109.9541032 0.69171143 107.72302246 C-0.2875802 71.8207451 -0.20551288 35.91209425 0 0 Z " fill="#B33E15" transform="translate(137,355)"/>
<path d="M0 0 C0.7003688 0.00424484 1.40073761 0.00848969 2.12232971 0.01286316 C4.33326625 0.02949719 6.54325082 0.06711695 8.75390625 0.10546875 C10.2636586 0.12053549 11.77342541 0.13422039 13.28320312 0.14648438 C16.96124059 0.17934954 20.63873032 0.23102293 24.31640625 0.29296875 C24.22346055 2.90629472 24.1304027 5.51961663 24.03723145 8.13293457 C23.95004429 10.57978647 23.86305941 13.02664558 23.77624512 15.47351074 C23.51423289 22.84329605 23.24554271 30.2127859 22.96875 37.58203125 C22.56677142 48.31839374 22.18430013 59.05538483 21.81640625 69.79296875 C21.7663273 71.25279993 21.7663273 71.25279993 21.71523666 72.74212265 C19.93859865 124.91274891 19.58347507 177.09625838 19.31640625 229.29296875 C14.47844637 229.4173625 9.64143444 229.50767665 4.80224609 229.56762695 C3.15917731 229.59263929 1.51621831 229.62666101 -0.12646484 229.67016602 C-16.60582753 230.09540762 -16.60582753 230.09540762 -22.32836914 225.65039062 C-29.2376767 218.7298808 -28.79881996 210.19393085 -29.2355957 200.99584961 C-29.29865512 199.69117564 -29.29865512 199.69117564 -29.36298847 198.36014462 C-29.77387873 189.25549664 -29.84755647 180.15939622 -29.8515625 171.046875 C-29.85479693 169.25837684 -29.85816238 167.46987891 -29.86164856 165.68138123 C-29.86757676 161.9544921 -29.86949542 158.22762592 -29.86889648 154.50073242 C-29.86881589 150.7676095 -29.87566273 147.03461105 -29.8894043 143.30151367 C-30.0082576 110.42114969 -29.01342735 77.77426564 -25.50634766 45.06103516 C-25.17260418 41.94020547 -24.85511799 38.81797911 -24.5390625 35.6953125 C-24.32773117 33.66006174 -24.11552877 31.62490118 -23.90234375 29.58984375 C-23.80957153 28.68055115 -23.71679932 27.77125854 -23.62121582 26.83441162 C-21.86693503 10.68119668 -21.86693503 10.68119668 -17.99609375 6.41796875 C-17.53847656 5.88429687 -17.08085938 5.350625 -16.609375 4.80078125 C-11.41074392 0.73045346 -6.47771111 -0.07804471 0 0 Z " fill="#B33D14" transform="translate(84.68359375,167.70703125)"/>
<path d="M0 0 C1.34100919 -0.00570777 2.68201353 -0.0126736 4.02301025 -0.02079773 C7.65564657 -0.03870833 11.28804101 -0.03756372 14.92070818 -0.03185534 C17.96193745 -0.02875768 21.00312065 -0.03486299 24.04434335 -0.04089409 C31.2278436 -0.05493342 38.41122494 -0.05338552 45.59472656 -0.04199219 C52.98037049 -0.03053628 60.36565021 -0.04454513 67.75124609 -0.07138866 C74.11076352 -0.09362882 80.47016735 -0.10016369 86.82972085 -0.09431225 C90.61953659 -0.09095824 94.40911945 -0.09325192 98.19890213 -0.11056328 C101.76957834 -0.12616153 105.33972138 -0.12193654 108.9103775 -0.10325813 C110.82601277 -0.09788145 112.7416727 -0.11199164 114.65725708 -0.12695312 C127.42187984 -0.01956956 139.50611582 3.68764599 149.06396484 12.43920898 C158.49619819 22.4356133 162.03625809 33.09066867 162.10693359 46.57202148 C161.82887825 49.53658218 160.99471853 51.67945106 159.84130859 54.40405273 C158.19545776 54.5134745 158.19545776 54.5134745 156.51635742 54.62510681 C146.15851896 55.31403539 135.80084606 56.00540691 125.44332886 56.69914913 C120.11887537 57.05570054 114.79436795 57.41140144 109.46972656 57.76513672 C104.32785597 58.10676166 99.18614119 58.45064935 94.04452515 58.79608345 C92.08626651 58.92725198 90.12795377 59.05761539 88.16958618 59.18714714 C85.41938625 59.36919315 82.66939542 59.55414259 79.91943359 59.73974609 C79.11598007 59.79225525 78.31252655 59.8447644 77.48472595 59.89886475 C72.57319808 60.2340723 67.72293512 60.76770579 62.84130859 61.40405273 C60.97832044 61.53470425 59.11350338 61.64271128 57.24755859 61.72045898 C56.28076172 61.76235352 55.31396484 61.80424805 54.31787109 61.84741211 C53.33560547 61.88672852 52.35333984 61.92604492 51.34130859 61.96655273 C49.82150391 62.03132813 49.82150391 62.03132813 48.27099609 62.09741211 C45.79454069 62.20254465 43.31800111 62.3046911 40.84130859 62.40405273 C40.37982422 61.38827148 39.91833984 60.37249023 39.44287109 59.32592773 C30.54309651 40.30370359 17.83723335 27.02504857 -2.15869141 19.40405273 C-12.77057034 15.56026136 -24.00006912 15.68787941 -35.15869141 15.40405273 C-35.15869141 15.07405273 -35.15869141 14.74405273 -35.15869141 14.40405273 C-31.85869141 14.40405273 -28.55869141 14.40405273 -25.15869141 14.40405273 C-25.09681641 13.70280273 -25.03494141 13.00155273 -24.97119141 12.27905273 C-23.61515083 7.4807553 -20.88008711 4.58475791 -16.87832642 1.83995056 C-11.29397435 -0.31578756 -5.93651744 -0.02137967 0 0 Z " fill="#92C7D9" transform="translate(264.15869140625,151.595947265625)"/>
<path d="M0 0 C4.06426433 3.73041404 5.32563256 8.27109908 6.9375 13.375 C9.98554275 22.54422571 13.59612347 31.4276528 17.375 40.3125 C18.50237461 42.96829622 19.62874277 45.62451624 20.75390625 48.28125 C21.16684937 49.2562571 21.16684937 49.2562571 21.58813477 50.2509613 C24.25521506 56.56840489 26.8098857 62.9281233 29.3125 69.3125 C29.69132324 70.27260986 30.07014648 71.23271973 30.46044922 72.22192383 C30.79963379 73.09357178 31.13881836 73.96521973 31.48828125 74.86328125 C31.92974487 75.99697144 31.92974487 75.99697144 32.38012695 77.15356445 C33 79 33 79 33 81 C34.670625 80.01 34.670625 80.01 36.375 79 C41.13107265 76.6049777 45.74788153 76.16044203 51 77 C51.66 77.66 52.32 78.32 53 79 C52.9921875 81.9375 52.9921875 81.9375 52 85 C49.4453125 86.6875 49.4453125 86.6875 46.125 88 C38.56715968 91.16914929 31.29033103 94.69107077 24.5 99.3125 C20.31064815 102.1403125 16.96923349 102.26620894 12 102 C11.01 101.34 10.02 100.68 9 100 C9.31138135 96.7220036 9.67325837 95.31932973 12.06640625 92.98046875 C12.89011719 92.38878906 13.71382813 91.79710937 14.5625 91.1875 C15.38878906 90.58292969 16.21507812 89.97835937 17.06640625 89.35546875 C17.70449219 88.90816406 18.34257812 88.46085937 19 88 C18.71125 86.87980469 18.4225 85.75960937 18.125 84.60546875 C17.74981309 83.13286011 17.37482335 81.66020122 17 80.1875 C16.80921875 79.44951172 16.6184375 78.71152344 16.421875 77.95117188 C15.64737086 74.89464659 15 72.16626522 15 69 C5.66437641 70.17858371 -3.01893575 72.22623803 -12 75 C-12.33 76.98 -12.66 78.96 -13 81 C-11.68 81.66 -10.36 82.32 -9 83 C-9.3125 85.875 -9.3125 85.875 -10 89 C-15.38930904 92.59287269 -22.719779 90.56466043 -29 90 C-30.21115479 89.89896973 -30.21115479 89.89896973 -31.44677734 89.79589844 C-33.88304434 89.5889048 -36.31636377 89.36077794 -38.75 89.125 C-39.5119165 89.05893555 -40.27383301 88.99287109 -41.05883789 88.92480469 C-45.1926122 88.48874276 -47.96095962 87.92707574 -51 85 C-50.125 80.125 -50.125 80.125 -49 79 C-41.63222429 78.58730746 -34.3110964 79.09420045 -27 80 C-27.02723145 78.99670654 -27.05446289 77.99341309 -27.08251953 76.9597168 C-27.00016904 73.00811147 -26.46821049 69.51317548 -25.6796875 65.64453125 C-25.54044861 64.95263702 -25.40120972 64.2607428 -25.25775146 63.54788208 C-24.80364817 61.30130698 -24.3396498 59.0569154 -23.875 56.8125 C-23.55737734 55.25537178 -23.24016146 53.69816054 -22.92333984 52.14086914 C-21.9606141 47.42479053 -20.98247115 42.71199982 -20 38 C-19.84861572 37.27268677 -19.69723145 36.54537354 -19.54125977 35.79602051 C-18.57850193 31.17451915 -17.6055333 26.55526948 -16.625 21.9375 C-16.37476074 20.75583252 -16.12452148 19.57416504 -15.86669922 18.35668945 C-15.6348291 17.27863037 -15.40295898 16.20057129 -15.1640625 15.08984375 C-14.86169678 13.68013306 -14.86169678 13.68013306 -14.55322266 12.24194336 C-14 10 -14 10 -13 8 C-14.93798521 8.30947671 -16.87537426 8.62268834 -18.8125 8.9375 C-19.89144531 9.11152344 -20.97039062 9.28554687 -22.08203125 9.46484375 C-25.04933356 9.93871921 -25.04933356 9.93871921 -28 11 C-29.51766539 11.11632729 -31.0404346 11.17496239 -32.5625 11.1875 C-33.34753906 11.20167969 -34.13257813 11.21585938 -34.94140625 11.23046875 C-37 11 -37 11 -39 9 C-38.8125 7 -38.8125 7 -38 5 C-35.09958045 3.06638697 -33.91264228 2.64009548 -30.60546875 2.1484375 C-29.73849365 2.01888672 -28.87151855 1.88933594 -27.97827148 1.75585938 C-27.05731689 1.63017578 -26.1363623 1.50449219 -25.1875 1.375 C-24.247854 1.24673828 -23.30820801 1.11847656 -22.34008789 0.98632812 C-5.46439294 -1.19509025 -5.46439294 -1.19509025 0 0 Z " fill="#06CDF8" transform="translate(241,232)"/>
<path d="M0 0 C0.495 0.99 0.495 0.99 1 2 C0.08413757 4.29568148 -0.88218411 6.42935142 -2 8.625 C-2.32178223 9.25728516 -2.64356445 9.88957031 -2.97509766 10.54101562 C-8.59424549 21.2258896 -16.34815677 28.38766416 -27.9609375 32.0949707 C-34.81046239 34.12840839 -41.38909106 34.84017199 -48.5 35.23046875 C-49.73814453 35.31122147 -50.97628906 35.39197418 -52.25195312 35.47517395 C-56.16720619 35.72732758 -60.08336348 35.95794911 -64 36.1875 C-66.62509199 36.35205462 -69.25009354 36.51805876 -71.875 36.68554688 C-76.71825192 36.99368825 -81.56192149 37.2920996 -86.40625 37.58276367 C-87.48648437 37.6513559 -88.56671875 37.71994812 -89.6796875 37.7906189 C-92.01763668 37.93805152 -94.35627269 38.0747872 -96.6953125 38.20376587 C-97.87867188 38.27743378 -99.06203125 38.35110168 -100.28125 38.42700195 C-101.35439453 38.48910355 -102.42753906 38.55120514 -103.53320312 38.6151886 C-104.75426758 38.80567024 -104.75426758 38.80567024 -106 39 C-106.33 39.66 -106.66 40.32 -107 41 C-108.41287178 37.2672654 -109.81844694 33.531871 -111.2175293 29.79394531 C-111.69375638 28.52465238 -112.17191647 27.25608286 -112.65209961 25.98828125 C-113.34485443 24.15819999 -114.02992225 22.32521483 -114.71484375 20.4921875 C-115.12855225 19.39245605 -115.54226074 18.29272461 -115.96850586 17.15966797 C-116.96708781 14.10081648 -117.5617705 11.18293007 -118 8 C-116.73929687 7.95101562 -115.47859375 7.90203125 -114.1796875 7.8515625 C-112.41144654 7.7763182 -110.64321805 7.70078077 -108.875 7.625 C-108.05773437 7.5940625 -107.24046875 7.563125 -106.3984375 7.53125 C-100.13843957 7.25507362 -93.92269071 6.722895 -87.6875 6.125 C-71.39305939 4.58286107 -55.05316226 3.61067075 -38.722229 2.54486084 C-34.34333273 2.25847755 -29.96464555 1.96893194 -25.5859375 1.6796875 C-17.05748823 1.11677387 -8.52882131 0.55724834 0 0 Z " fill="#4A636C" transform="translate(424,205)"/>
<path d="M0 0 C0.7031987 0.0028299 1.4063974 0.00565979 2.13090515 0.00857544 C4.36218767 0.01971099 6.59305892 0.04480253 8.82421875 0.0703125 C10.34309313 0.0803509 11.86197385 0.08947524 13.38085938 0.09765625 C17.09127796 0.11962837 20.80145817 0.15411203 24.51171875 0.1953125 C24.05700119 13.59266612 23.59884057 26.99050454 23.01171875 40.3828125 C22.9763501 41.26606201 22.94098145 42.14931152 22.90454102 43.05932617 C22.62803175 49.0789995 22.62803175 49.0789995 21.51171875 50.1953125 C18.80703697 50.30622583 16.12363111 50.35697116 13.41796875 50.37109375 C11.73045663 50.39431744 10.04295662 50.41843576 8.35546875 50.44335938 C5.69393111 50.47828961 3.03283127 50.50770514 0.37109375 50.52124023 C-13.10199961 50.41480997 -13.10199961 50.41480997 -25.48828125 55.1953125 C-25.07379691 44.93325192 -24.24388029 34.72235911 -23.17578125 24.5078125 C-23.07031982 23.38584473 -22.9648584 22.26387695 -22.85620117 21.10791016 C-22.01436223 13.45808101 -20.79128955 9.24424324 -15.05078125 3.9453125 C-10.01205825 0.50423338 -6.08398555 -0.04847797 0 0 Z " fill="#EA790C" transform="translate(84.48828125,167.8046875)"/>
<path d="M0 0 C0.97498947 -0.01283524 1.94997894 -0.02567047 2.95451355 -0.03889465 C4.53417656 -0.04997505 4.53417656 -0.04997505 6.14575195 -0.0612793 C7.23233597 -0.06935104 8.31891998 -0.07742279 9.43843079 -0.08573914 C11.74083868 -0.09957692 14.04326707 -0.11030044 16.34570312 -0.11816406 C19.85302071 -0.13534612 23.35938815 -0.17923273 26.86645508 -0.22338867 C29.10538045 -0.23351856 31.34431383 -0.24203373 33.58325195 -0.2487793 C34.62623947 -0.26628738 35.66922699 -0.28379547 36.74382019 -0.30183411 C44.06897281 -0.2802038 49.74051598 0.76888992 55.16918945 6.12231445 C57.11406258 10.0120607 56.7906005 13.95178174 56.1965332 18.17700195 C53.80647646 23.23289122 51.36075983 25.20406409 46.1965332 27.17700195 C42.35112455 27.6117475 38.53194274 27.59747139 34.6652832 27.57543945 C33.55600464 27.57830963 32.44672607 27.58117981 31.30383301 27.58413696 C28.96386198 27.58617397 26.62387378 27.58066959 24.28393555 27.56811523 C20.70884 27.55205723 17.13487497 27.56797711 13.55981445 27.5871582 C11.28246822 27.58517571 9.00512268 27.5813319 6.7277832 27.57543945 C5.12912415 27.58454849 5.12912415 27.58454849 3.49816895 27.59384155 C-3.32702721 27.52937908 -7.97636179 26.85129048 -13.1159668 21.98950195 C-15.28336908 18.37716482 -16.0100061 15.38214224 -15.8034668 11.17700195 C-14.16837747 6.45341057 -11.92218172 3.95713452 -7.8034668 1.17700195 C-4.90977483 0.21243796 -3.01236391 0.03458421 0 0 Z " fill="#FBFDFD" transform="translate(344.803466796875,160.822998046875)"/>
<path d="M0 0 C-1.93809823 30.23433231 -17.4390985 60.50829941 -38.5546875 81.8203125 C-40 83 -40 83 -42 83 C-42.66 84.32 -43.32 85.64 -44 87 C-44.66 86.67 -45.32 86.34 -46 86 C-45.55269531 85.40574219 -45.10539062 84.81148438 -44.64453125 84.19921875 C-44.03996094 83.37035156 -43.43539063 82.54148437 -42.8125 81.6875 C-42.22082031 80.88699219 -41.62914062 80.08648437 -41.01953125 79.26171875 C-40.35308594 78.18535156 -39.68664062 77.10898437 -39 76 C-38.56260498 75.33516602 -38.12520996 74.67033203 -37.67456055 73.98535156 C-32.66574212 65.06123342 -33.13969737 55.40180631 -33.18334961 45.45068359 C-33.18746521 42.40077835 -33.12242156 39.35759286 -33.05273438 36.30859375 C-32.93427605 23.04692146 -35.21500747 13.41834086 -42 2 C-27.98588647 0.79365689 -14.07449206 -0.38269012 0 0 Z " fill="#EC7B0E" transform="translate(389,271)"/>
<path d="M0 0 C1.13465337 3.4039601 0.70429497 5.52900676 0 9 C-1.34045895 22.06580374 -1.15367423 35.22750274 -1.13037109 48.34448242 C-1.12501575 51.92696372 -1.13034293 55.50931939 -1.13671875 59.09179688 C-1.8443097 79.72566397 -1.8443097 79.72566397 1 100 C1.78592476 107.09118476 2.24998807 113.18889284 -2.125 119.125 C-2.76050781 119.90230469 -3.39601562 120.67960937 -4.05078125 121.48046875 C-6.90366517 125.1680642 -8.7421326 129.23894714 -10.73828125 133.43359375 C-12 136 -12 136 -14 139 C-13.49762763 119.09012995 -12.36543306 99.30044858 -10.78839111 79.45098877 C-10.57029997 76.68000108 -10.36023658 73.90842735 -10.14996719 71.13683701 C-9.11305513 57.5045057 -7.97002661 43.88499946 -6.5234375 30.2890625 C-6.36181625 28.70791153 -6.36181625 28.70791153 -6.19692993 27.09481812 C-5.1701667 17.86224353 -3.65942636 8.58714926 0 0 Z " fill="#B03D15" transform="translate(153,80)"/>
<path d="M0 0 C2.52046982 2.52046982 3.41565987 4.96895216 4.8203125 8.25 C5.21559647 9.17087402 5.21559647 9.17087402 5.61886597 10.11035156 C6.17418719 11.4072068 6.72711984 12.70508707 7.27783203 14.00390625 C8.1228668 15.99497376 8.9768528 17.98202145 9.83203125 19.96875 C10.37032956 21.22893704 10.90810779 22.48934638 11.4453125 23.75 C11.93531738 24.89984375 12.42532227 26.0496875 12.93017578 27.234375 C14 30 14 30 14 32 C7.07 33.32 0.14 34.64 -7 36 C-5.87346407 24.73464074 -5.87346407 24.73464074 -4.84375 19.58984375 C-4.62589844 18.49865234 -4.40804687 17.40746094 -4.18359375 16.28320312 C-3.95800781 15.17912109 -3.73242188 14.07503906 -3.5 12.9375 C-3.16162109 11.22916992 -3.16162109 11.22916992 -2.81640625 9.48632812 C-1.13021807 1.13021807 -1.13021807 1.13021807 0 0 Z " fill="#F20A0C" transform="translate(238,260)"/>
<path d="M0 0 C1.36047344 0.00084695 2.72094825 0.0003698 4.0814209 -0.00132751 C7.76288742 -0.00218625 11.44405912 0.01541951 15.12545729 0.03639436 C18.97714705 0.05518161 22.828844 0.05691321 26.68057251 0.06047058 C33.96904376 0.06978505 41.25737958 0.09439067 48.54579127 0.12451905 C56.84563244 0.15808174 65.14548017 0.17455376 73.44537234 0.18960536 C90.51395279 0.2209408 107.58240151 0.27368959 124.65087891 0.34057617 C124.65087891 0.67057617 124.65087891 1.00057617 124.65087891 1.34057617 C80.43087891 1.34057617 36.21087891 1.34057617 -9.34912109 1.34057617 C-9.01912109 3.65057617 -8.68912109 5.96057617 -8.34912109 8.34057617 C-8.34912109 10.98057617 -8.34912109 13.62057617 -8.34912109 16.34057617 C-17.25912109 16.01057617 -26.16912109 15.68057617 -35.34912109 15.34057617 C-35.34912109 15.01057617 -35.34912109 14.68057617 -35.34912109 14.34057617 C-32.04912109 14.34057617 -28.74912109 14.34057617 -25.34912109 14.34057617 C-25.28724609 13.63932617 -25.22537109 12.93807617 -25.16162109 12.21557617 C-23.8062712 7.41972269 -21.06943714 4.52974033 -17.08065796 1.77250671 C-11.43300471 -0.39470949 -5.99786968 -0.05098553 0 0 Z " fill="#5A7883" transform="translate(264.34912109375,151.659423828125)"/>
<path d="M0 0 C0.33 0 0.66 0 1 0 C1.508783 1.55966218 2.00663469 3.12289241 2.5 4.6875 C2.7784375 5.55761719 3.056875 6.42773438 3.34375 7.32421875 C4.0282217 10.11507063 4.40523065 12.14957077 4 15 C2.68 16.32 1.36 17.64 0 19 C0 12.73 0 6.46 0 0 Z " fill="#BA512C" transform="translate(138,255)"/>
<path d="M0 0 C1.46534385 3.80989402 0.55203911 6.3241179 -1 10 C-1.99 10.495 -1.99 10.495 -3 11 C-2.44894091 7.0507432 -1.61064629 3.65079826 0 0 Z " fill="#A13D11" transform="translate(153,80)"/>
</svg>
